<?xml version="1.0" encoding="utf-8"?>
<!-- Generator: Adobe Illustrator 25.0.0, SVG Export Plug-In . SVG Version: 6.00 Build 0)  -->
<svg version="1.1" id="Layer_1" xmlns="http://www.w3.org/2000/svg" xmlns:xlink="http://www.w3.org/1999/xlink" x="0px" y="0px"
	 viewBox="0 0 98 98" style="enable-background:new 0 0 98 98;" xml:space="preserve">
<style type="text/css">
	.st0{fill:#FFFFFF;}
</style>
<g>
	<path class="st0" d="M49,0L49,0C21.94,0,0,21.94,0,49v0c0,27.06,21.94,49,49,49h0c27.06,0,49-21.94,49-49v0C98,21.94,76.06,0,49,0z
		 M90.55,49c0,22.95-18.6,41.55-41.55,41.55h0C26.05,90.55,7.45,71.95,7.45,49v0C7.45,26.05,26.05,7.45,49,7.45h0
		C71.95,7.45,90.55,26.05,90.55,49L90.55,49z"/>
	<g>
		<path class="st0" d="M41.93,33.1v7.9h-8.44V64.9h-9.97V41.01h-8.35v-7.9H41.93z"/>
		<path class="st0" d="M82.83,33.1V64.9h-9.92V49.04L68.02,64.9h-8.53l-4.9-15.85V64.9h-9.97V33.1h12.21l7.01,19.08l6.83-19.08
			H82.83z"/>
	</g>
</g>
</svg>
